<svg xmlns="http://www.w3.org/2000/svg" viewBox="0 0 280.09 60.72"><defs><style>.cls-1{fill:#ffbc00;}.cls-1,.cls-2{stroke:#000;stroke-miterlimit:10;}.cls-2{fill:#fff;}.cls-3{fill:#00ff48;}</style></defs><title>Asset 4</title><g id="Layer_2" data-name="Layer 2"><g id="Layer_1-2" data-name="Layer 1"><path class="cls-1" d="M36.36,34.44H26.2V29.55H16.05v4.89H10.8V49.78h5V55H26.06v-5h10.3v5h-4.9v5.18H10.8v-4.9H5.68V50.07H.5V34.44H5.4V29.55h5.18V24.36H31.24v4.9h5.12Z"/><path class="cls-2" d="M76,44.81H65.66v5h5.18V55H76v5.18H60.69V55.4H55.58V50H50.4V60.22H40.1V24.36H70.84v5H76Zm-10.3-5.18V29.55H50.4V44.81H60.69V39.63Z"/><path class="cls-2" d="M113,39.63h-4.89v5.11h-5.26V60.22H92.37V45h-5V39.84H82.22V24.36H92.37V39.63h10.3V24.36H113Z"/><path class="cls-2" d="M155.15,44.74h-4.89v5.18H129.59v10.3H119.3V24.36H150v4.9h5.11Zm-10.29,0V29.55H129.59V44.74Z"/><path class="cls-2" d="M187.05,29.33H177V60.22h-10.3V29.55H156.3V24.36h30.75Z"/><path class="cls-2" d="M234.35,55h-4.89v5.18H203.68v-4.9H198.5V29.55h4.89V24.36h25.85v4.9h5.11Zm-10.29,0V29.55H208.79V55Z"/><polygon class="cls-3" points="184.05 15.86 185.18 12.92 189.22 14.47 192.77 5.19 188.73 3.64 189.88 0.65 203.05 5.69 201.94 8.61 197.9 7.06 194.33 16.36 198.38 17.91 197.23 20.91 184.05 15.86"/><path d="M190.17,1.29,202.41,6l-.76,2-4-1.55-3.92,10.24,4,1.55-.79,2.06-12.25-4.69.77-2,4,1.55,3.91-10.2-4-1.55.8-2.07M189.59,0l-.36.93L188.44,3l-.36.93.94.36,3.11,1.19-3.2,8.34-3.11-1.19-.93-.36-.36.94-.77,2-.36.94.94.36,12.24,4.69.93.35.36-.93.79-2.06.36-.94-.93-.36L195,16.07l3.21-8.37,3.1,1.19.94.36.36-.93.75-2,.36-.93-.93-.36L190.52.36,189.59,0Z"/><polygon class="cls-3" points="208.62 25.27 209.37 23.32 207.34 22.55 208.13 20.48 206.06 19.69 206.86 17.59 205.82 17.2 203.48 23.3 198.39 21.35 204.22 6.14 209.19 8.04 208.44 9.99 210.54 10.8 209.76 12.83 211.82 13.62 211.02 15.72 212.06 16.12 214.39 10.04 219.43 11.97 213.6 27.18 208.62 25.27"/><path d="M204.5,6.78l4.05,1.55-.75,1.95,2.09.81-.78,2,2.07.79L210.37,16l2,.76,2.33-6.08,4.1,1.57-5.47,14.29-4-1.55L210,23l-2-.78.79-2.07-2.06-.79.8-2.09-2-.76-2.34,6.11L199,21.06,204.5,6.78m-.57-1.29-.36.94L198.1,20.71l-.36.93.93.36,4.16,1.59.94.36.35-.94,2-5.17.11,0L205.77,19l-.36.94.94.35,1.13.44-.43,1.13-.36.93.93.36,1.1.42-.38,1-.36.93.93.36,4,1.55.94.36.36-.94,5.47-14.28.35-.93-.93-.36L215,9.75l-.93-.36-.36.94-2,5.14-.11,0,.44-1.16.36-.94-.94-.35-1.13-.44.43-1.1.35-.93-.93-.36-1.16-.44.39-1,.36-.93-.94-.36-4-1.55-.93-.36Z"/><polygon class="cls-3" points="220.29 29.75 221.04 27.8 218.95 26.99 219.74 24.93 217.73 24.16 218.51 22.12 216.47 21.34 219.99 12.18 224.96 14.09 222.65 20.11 224.75 20.91 223.94 23.03 224.95 23.42 225.72 21.41 227.81 22.22 230.16 16.08 235.2 18.01 231.72 27.09 229.74 26.33 228.96 28.36 226.93 27.58 226.15 29.62 224.08 28.83 223.29 30.89 220.29 29.75"/><path d="M220.27,12.83l4,1.54-2.31,6,2.09.8-.81,2.12,2,.75.77-2,2.09.8,2.35-6.13,4.1,1.57-3.12,8.14-2-.76-.78,2-2-.78-.78,2-2.07-.79L223,30.25l-2.06-.79.75-1.95-2.1-.8.79-2.07-2-.77.78-2-2-.78,3.15-8.23m-.57-1.3-.36.94-3.15,8.23-.36.93.93.36,1.11.42-.43,1.1-.35.94.93.36,1.07.41-.43,1.13-.36.93.94.36,1.15.44-.38,1-.36.93.93.36,2.07.79.93.36.36-.93.43-1.14,1.13.44.93.36.36-.94.42-1.1,1.11.42.93.36.36-.93L230,27l1.05.4.93.36.36-.93,3.12-8.15.35-.93-.93-.36-4.1-1.57-.93-.36-.36.94-2,5.2-1.16-.44-.94-.36-.35.93-.42,1.08-.08,0,.46-1.18.35-.94-.93-.36-1.16-.44,1.95-5.09.36-.93-.94-.36-4-1.55-.93-.36Z"/><polygon class="cls-3" points="230.06 33.35 235.94 18 251.33 23.89 250.2 26.83 239.91 22.89 238.69 26.06 244.86 28.42 243.69 31.47 237.52 29.11 236.3 32.31 246.59 36.25 245.44 39.25 230.06 33.35"/><path d="M236.23,18.64l14.45,5.54-.77,2-10.29-4-1.57,4.1,6.16,2.37-.81,2.12-6.17-2.36-1.58,4.12L246,36.54l-.79,2.06L230.7,33.07l5.53-14.43m-.58-1.29-.35.93-5.53,14.43-.36.93.94.36,14.45,5.54.93.35.36-.93.79-2.06.36-.94-.94-.36L236.94,32l.87-2.26,5.23,2,.94.36.35-.94.82-2.12.35-.93-.93-.36-5.23-2,.85-2.24,9.37,3.59.93.36.36-.94.77-2,.35-.94-.93-.35-14.45-5.54-.94-.36Z"/><polygon class="cls-3" points="247.76 40.27 248.51 38.32 246.45 37.53 247.59 34.53 252.63 36.46 251.88 38.41 257.03 40.38 258.2 37.33 250.08 34.22 250.87 32.15 248.81 31.36 250.74 26.33 252.69 27.07 253.48 25.01 262.64 28.52 261.89 30.47 263.96 31.26 262.81 34.26 257.83 32.35 258.58 30.41 255.41 29.19 254.26 32.21 262.4 35.33 261.6 37.43 263.63 38.21 261.7 43.24 259.75 42.49 258.96 44.56 247.76 40.27"/><path d="M253.77,25.66,262,28.81l-.74,2,2.06.79-.79,2.06-4-1.54.75-1.95-4.11-1.57-1.51,3.95,8.14,3.12-.8,2.1,2,.77-1.57,4.11-1.95-.75-.8,2.06L248.41,40l.75-1.95-2.07-.79.79-2.07,4.1,1.58-.74,2L257.32,41l1.52-4-8.11-3.11.79-2.06-2.07-.8L251,27l1.94.75.8-2.06m-.58-1.29-.36.93-.43,1.13-1-.39-.93-.36-.36.94-1.57,4.1-.36.93.94.36,1.13.43-.44,1.13-.35.94.93.35,7.18,2.75-.81,2.12-4.21-1.61.39-1,.35-.93-.93-.36-4.1-1.57-.93-.36-.36.94-.79,2.06-.36.94.93.35,1.13.44-.38,1-.36.94.93.35,10.27,3.94.93.35.36-.93.43-1.13,1,.39.93.36.36-.94,1.57-4.1.36-.93-.94-.36-1.1-.42.45-1.16.36-.93-.94-.36-7.21-2.76.8-2.09,2.23.85-.39,1-.35.93.93.36,4,1.55.94.36.36-.94.79-2.06.36-.94-.94-.35-1.13-.44.39-1,.36-.94-.94-.35-8.23-3.16-.93-.35Z"/><polygon class="cls-3" points="264.57 46.71 269.25 34.49 265.12 32.91 266.26 29.91 279.44 34.96 278.33 37.87 274.31 36.33 269.6 48.63 264.57 46.71"/><path d="M266.55,30.56l12.25,4.69-.76,2-4-1.53L269.31,48l-4.1-1.57,4.68-12.22-4.13-1.58.79-2.06m-.57-1.3-.36.94-.79,2.06-.36.94.94.35,3.19,1.23-4.32,11.28-.36.93.93.36,4.1,1.57.94.36.36-.93L274.6,37l3.08,1.18.94.36.35-.94.76-2,.36-.93-.93-.36-12.25-4.69-.93-.36Z"/></g></g></svg>